{
  "accessors": [
    {
      "bufferView": 2,
      "componentType": 5126,
      "count": 79,
      "max": [
        1.5125586986541748,
        1.1804745197296143,
        4.087192535400391
      ],
      "min": [
        -1.4940011501312256,
        -0.7217085957527161,
        -2.731623888015747
      ],
      "type": "VEC3"
    },
    {
      "bufferView": 2,
      "byteOffset": 948,
      "componentType": 5126,
      "count": 79,
      "max": [
        0.8403181433677673,
        0.9997271299362183,
        0.8726446628570557
      ],
      "min": [
        -0.8566159009933472,
        -0.8869089484214783,
        -0.9643027782440186
      ],
      "type": "VEC3"
    },
    {
      "bufferView": 1,
      "componentType": 5126,
      "count": 79,
      "max": [
        0.9428604245185852,
        0.9777335524559021
      ],
      "min": [
        0.02815975807607174,
        0.028516551479697227
      ],
      "type": "VEC2"
    },
    {
      "bufferView": 0,
      "componentType": 5125,
      "count": 267,
      "type": "SCALAR"
    }
  ],
  "asset": {
    "extras": {
      "author": "Berkay Telli (https://sketchfab.com/brkytll)",
      "license": "CC-BY-SA-4.0 (http://creativecommons.org/licenses/by-sa/4.0/)",
      "source": "https://sketchfab.com/3d-models/simple-boat-428ad2c696ab439aaad5f27eea11d0fc",
      "title": "Simple Boat"
    },
    "generator": "Sketchfab-12.68.0",
    "version": "2.0"
  },
  "bufferViews": [
    {
      "buffer": 0,
      "byteLength": 1068,
      "name": "floatBufferViews",
      "target": 34963
    },
    {
      "buffer": 0,
      "byteLength": 632,
      "byteOffset": 1068,
      "byteStride": 8,
      "name": "floatBufferViews",
      "target": 34962
    },
    {
      "buffer": 0,
      "byteLength": 1896,
      "byteOffset": 1700,
      "byteStride": 12,
      "name": "floatBufferViews",
      "target": 34962
    }
  ],
  "buffers": [
    {
      "byteLength": 3596,
      "uri": "scene.bin"
    }
  ],
  "extensionsRequired": [
    "KHR_materials_pbrSpecularGlossiness"
  ],
  "extensionsUsed": [
    "KHR_materials_pbrSpecularGlossiness"
  ],
  "images": [
    {
      "uri": "textures/Material.002_diffuse.png"
    }
  ],
  "materials": [
    {
      "doubleSided": true,
      "extensions": {
        "KHR_materials_pbrSpecularGlossiness": {
          "diffuseFactor": [
            0.7061845311578715,
            0.7061845311578715,
            0.7061845311578715,
            1.0
          ],
          "diffuseTexture": {
            "index": 0
          },
          "glossinessFactor": 0.0422948505,
          "specularFactor": [
            0.0,
            0.0,
            0.0
          ]
        }
      },
      "name": "Material.002"
    }
  ],
  "meshes": [
    {
      "name": "boat_Material.002_0",
      "primitives": [
        {
          "attributes": {
            "NORMAL": 1,
            "POSITION": 0,
            "TEXCOORD_0": 2
          },
          "indices": 3,
          "material": 0,
          "mode": 4
        }
      ]
    }
  ],
  "nodes": [
    {
      "children": [
        1
      ],
      "matrix": [
        0.004376576074929472,
        -7.341536872484196e-06,
        -2.1720389236028287e-18,
        0.0,
        -7.341536872484196e-06,
        -0.004376576074929472,
        -1.3321102483024932e-17,
        0.0,
        -2.153326414673371e-18,
        1.3324730352995459e-17,
        -0.004376582335680723,
        0.0,
        -0.038453228771686554,
        44.83940505981443,
        90.71737670898439,
        1.0
      ],
      "name": "Sketchfab_model"
    },
    {
      "children": [
        2
      ],
      "matrix": [
        1.0,
        0.0,
        0.0,
        0.0,
        0.0,
        0.0,
        1.0,
        0.0,
        0.0,
        -1.0,
        0.0,
        0.0,
        0.0,
        0.0,
        0.0,
        1.0
      ],
      "name": "BOAT.fbx"
    },
    {
      "children": [
        3
      ],
      "name": "RootNode"
    },
    {
      "children": [
        4
      ],
      "matrix": [
        -99.9999999999996,
        -8.742277980456488e-06,
        0.0,
        0.0,
        -1.4242978711041864e-12,
        1.6292067994694293e-05,
        99.99999999999865,
        0.0,
        -8.74227798045637e-06,
        99.99999999999828,
        -1.6292067983592062e-05,
        0.0,
        0.0,
        0.0,
        0.0,
        1.0
      ],
      "name": "boat"
    },
    {
      "mesh": 0,
      "name": "boat_Material.002_0"
    }
  ],
  "samplers": [
    {
      "magFilter": 9729,
      "minFilter": 9987,
      "wrapS": 10497,
      "wrapT": 10497
    }
  ],
  "scene": 0,
  "scenes": [
    {
      "name": "Sketchfab_Scene",
      "nodes": [
        0
      ]
    }
  ],
  "textures": [
    {
      "sampler": 0,
      "source": 0
    }
  ]
}
